<svg width="343.352" height="43.967" viewBox="0 0 343.352 43.967" xmlns="http://www.w3.org/2000/svg"><g id="svgGroup" stroke-linecap="round" fill-rule="nonzero" font-size="9pt" stroke="#cfc8c3" stroke-width="0.5" fill="#cfc8c3" style="stroke:#cfc8c3;stroke-width:0.5;fill:#cfc8c3"><path d="M 211.32 34.065 L 205.425 34.065 L 205.425 9.585 L 210.96 9.585 L 210.96 15.255 L 210.33 14.31 Q 211.005 11.655 213.03 10.35 Q 215.055 9.045 217.8 9.045 Q 220.815 9.045 223.11 10.62 Q 225.405 12.195 226.08 14.76 L 224.415 14.895 Q 225.54 11.97 227.79 10.508 Q 230.04 9.045 232.965 9.045 Q 235.575 9.045 237.622 10.215 Q 239.67 11.385 240.84 13.478 Q 242.01 15.57 242.01 18.315 L 242.01 34.065 L 236.115 34.065 L 236.115 19.71 Q 236.115 18.09 235.53 16.92 Q 234.945 15.75 233.91 15.098 Q 232.875 14.445 231.39 14.445 Q 229.995 14.445 228.915 15.098 Q 227.835 15.75 227.25 16.92 Q 226.665 18.09 226.665 19.71 L 226.665 34.065 L 220.77 34.065 L 220.77 19.71 Q 220.77 18.09 220.185 16.92 Q 219.6 15.75 218.543 15.098 Q 217.485 14.445 216.045 14.445 Q 214.65 14.445 213.57 15.098 Q 212.49 15.75 211.905 16.92 Q 211.32 18.09 211.32 19.71 L 211.32 34.065 Z M 269.775 23.49 L 250.875 23.49 L 250.875 18.99 L 266.445 18.99 L 263.655 21.105 Q 264.06 19.035 263.453 17.415 Q 262.845 15.795 261.472 14.85 Q 260.1 13.905 258.165 13.905 Q 256.32 13.905 254.88 14.827 Q 253.44 15.75 252.698 17.528 A 8.625 8.625 0 0 0 252.1 20.87 A 13.412 13.412 0 0 0 252.135 21.825 A 10.274 10.274 0 0 0 252.102 22.644 A 7.559 7.559 0 0 0 252.742 25.808 Q 253.53 27.54 255.082 28.485 Q 256.635 29.43 258.66 29.43 Q 260.685 29.43 262.102 28.575 Q 263.52 27.72 264.33 26.28 L 269.1 28.62 Q 268.38 30.375 266.85 31.725 Q 265.32 33.075 263.227 33.84 Q 261.135 34.605 258.615 34.605 Q 254.835 34.605 252 32.895 Q 249.165 31.185 247.59 28.26 Q 246.015 25.335 246.015 21.78 Q 246.015 18.09 247.612 15.232 Q 249.21 12.375 251.978 10.71 Q 254.745 9.045 258.165 9.045 Q 261.045 9.045 263.227 9.99 Q 265.41 10.935 266.94 12.6 Q 268.47 14.265 269.28 16.403 Q 270.09 18.54 270.09 21.015 Q 270.09 21.645 270.023 22.32 Q 269.955 22.995 269.775 23.49 Z M 186.795 19.755 L 194.805 18.45 L 194.805 22.95 L 187.92 24.12 Q 186.165 24.435 185.31 25.245 Q 184.455 26.055 184.455 27.36 Q 184.455 28.62 185.422 29.362 Q 186.39 30.105 187.83 30.105 Q 189.675 30.105 191.092 29.318 Q 192.51 28.53 193.297 27.135 Q 194.085 25.74 194.085 24.075 L 194.085 17.775 Q 194.085 16.2 192.847 15.142 Q 191.61 14.085 189.585 14.085 Q 187.695 14.085 186.233 15.098 Q 184.77 16.11 184.095 17.775 L 179.28 15.435 Q 180 13.5 181.552 12.083 Q 183.105 10.665 185.22 9.855 Q 187.335 9.045 189.81 9.045 Q 192.825 9.045 195.12 10.147 Q 197.415 11.25 198.698 13.208 Q 199.98 15.165 199.98 17.775 L 199.98 34.065 L 194.4 34.065 L 194.4 29.88 L 195.66 29.79 Q 194.715 31.365 193.41 32.423 Q 192.105 33.48 190.44 34.043 Q 188.775 34.605 186.75 34.605 Q 184.185 34.605 182.295 33.75 Q 180.405 32.895 179.37 31.298 Q 178.335 29.7 178.335 27.585 Q 178.335 25.56 179.235 23.963 Q 180.135 22.365 182.025 21.285 Q 183.915 20.205 186.795 19.755 Z M 330.165 19.755 L 338.175 18.45 L 338.175 22.95 L 331.29 24.12 Q 329.535 24.435 328.68 25.245 Q 327.825 26.055 327.825 27.36 Q 327.825 28.62 328.792 29.362 Q 329.76 30.105 331.2 30.105 Q 333.045 30.105 334.463 29.318 Q 335.88 28.53 336.668 27.135 Q 337.455 25.74 337.455 24.075 L 337.455 17.775 Q 337.455 16.2 336.218 15.142 Q 334.98 14.085 332.955 14.085 Q 331.065 14.085 329.602 15.098 Q 328.14 16.11 327.465 17.775 L 322.65 15.435 Q 323.37 13.5 324.923 12.083 Q 326.475 10.665 328.59 9.855 Q 330.705 9.045 333.18 9.045 Q 336.195 9.045 338.49 10.147 Q 340.785 11.25 342.068 13.208 Q 343.35 15.165 343.35 17.775 L 343.35 34.065 L 337.77 34.065 L 337.77 29.88 L 339.03 29.79 Q 338.085 31.365 336.78 32.423 Q 335.475 33.48 333.81 34.043 Q 332.145 34.605 330.12 34.605 Q 327.555 34.605 325.665 33.75 Q 323.775 32.895 322.74 31.298 Q 321.705 29.7 321.705 27.585 Q 321.705 25.56 322.605 23.963 Q 323.505 22.365 325.395 21.285 Q 327.285 20.205 330.165 19.755 Z M 296.55 43.245 L 296.55 38.34 Q 297.135 38.475 297.968 38.61 Q 298.8 38.745 299.52 38.745 Q 301.545 38.745 302.468 37.823 Q 303.39 36.9 304.11 35.37 L 305.73 31.59 L 305.64 36.54 L 294.975 9.585 L 301.32 9.585 L 308.79 29.475 L 306.54 29.475 L 313.965 9.585 L 320.355 9.585 L 309.69 36.54 Q 308.745 38.88 307.395 40.545 Q 306.045 42.21 304.268 43.088 Q 302.49 43.965 300.195 43.965 Q 299.205 43.965 298.26 43.808 Q 297.315 43.65 296.55 43.245 Z M 158.535 34.065 L 152.64 34.065 L 152.64 0 L 158.535 0 L 158.535 14.4 L 157.725 13.545 Q 158.58 11.34 160.538 10.192 Q 162.495 9.045 165.105 9.045 Q 167.805 9.045 169.897 10.215 Q 171.99 11.385 173.16 13.478 Q 174.33 15.57 174.33 18.315 L 174.33 34.065 L 168.435 34.065 L 168.435 19.71 Q 168.435 18.09 167.805 16.92 Q 167.175 15.75 166.073 15.098 Q 164.97 14.445 163.485 14.445 Q 162.045 14.445 160.92 15.098 Q 159.795 15.75 159.165 16.92 Q 158.535 18.09 158.535 19.71 L 158.535 34.065 Z M 6.12 34.065 L 0 34.065 L 0 0.54 L 12.465 0.54 Q 15.885 0.54 18.518 1.777 Q 21.15 3.015 22.635 5.377 Q 24.12 7.74 24.12 11.115 Q 24.12 14.58 22.478 17.01 Q 20.835 19.44 18.045 20.61 L 25.74 34.065 L 18.81 34.065 L 10.575 19.35 L 14.535 21.69 L 6.12 21.69 L 6.12 34.065 Z M 6.12 5.94 L 6.12 16.29 L 12.555 16.29 Q 14.22 16.29 15.435 15.638 Q 16.65 14.985 17.325 13.815 Q 18 12.645 18 11.115 Q 18 9.54 17.325 8.392 Q 16.65 7.245 15.435 6.592 Q 14.22 5.94 12.555 5.94 L 6.12 5.94 Z M 28.755 24.57 L 28.755 9.585 L 34.65 9.585 L 34.65 24.075 Q 34.65 25.605 35.257 26.752 Q 35.865 27.9 37.012 28.553 Q 38.16 29.205 39.6 29.205 Q 41.04 29.205 42.165 28.553 Q 43.29 27.9 43.92 26.73 Q 44.55 25.56 44.55 23.94 L 44.55 9.585 L 50.445 9.585 L 50.445 34.065 L 44.865 34.065 L 44.865 29.25 L 45.36 30.105 Q 44.505 32.355 42.547 33.48 Q 40.59 34.605 37.98 34.605 Q 35.145 34.605 33.052 33.345 Q 30.96 32.085 29.857 29.835 Q 28.755 27.585 28.755 24.57 Z M 87.12 34.065 L 81.9 34.065 L 72.27 9.585 L 78.705 9.585 L 85.68 28.845 L 83.295 28.845 L 90.315 9.585 L 96.75 9.585 L 87.12 34.065 Z M 130.77 34.065 L 119.835 34.065 L 119.835 0.54 L 130.77 0.54 Q 136.08 0.54 140.017 2.677 Q 143.955 4.815 146.115 8.572 Q 148.275 12.33 148.275 17.28 Q 148.275 22.185 146.115 25.987 Q 143.955 29.79 140.017 31.928 Q 136.08 34.065 130.77 34.065 Z M 125.955 5.94 L 125.955 28.665 L 130.905 28.665 Q 134.325 28.665 136.823 27.248 Q 139.32 25.83 140.715 23.287 Q 142.11 20.745 142.11 17.28 Q 142.11 13.77 140.715 11.25 Q 139.32 8.73 136.823 7.335 Q 134.325 5.94 130.905 5.94 L 125.955 5.94 Z M 58.41 25.65 L 58.41 14.85 L 54.18 14.85 L 54.18 9.585 L 54.63 9.585 Q 56.43 9.585 57.42 8.64 Q 58.41 7.695 58.41 5.895 L 58.41 4.005 L 64.305 4.005 L 64.305 9.585 L 69.93 9.585 L 69.93 14.85 L 64.305 14.85 L 64.305 25.335 Q 64.305 26.55 64.733 27.405 Q 65.16 28.26 66.083 28.71 Q 67.005 29.16 68.445 29.16 Q 68.76 29.16 69.188 29.115 Q 69.615 29.07 70.02 29.025 L 70.02 34.065 Q 69.39 34.155 68.58 34.245 Q 67.77 34.335 67.095 34.335 Q 62.955 34.335 60.682 32.063 Q 58.41 29.79 58.41 25.65 Z M 280.44 34.065 L 274.545 34.065 L 274.545 0 L 280.44 0 L 280.44 34.065 Z M 105.885 34.065 L 99.99 34.065 L 99.99 9.585 L 105.885 9.585 L 105.885 34.065 Z M 291.78 34.065 L 285.885 34.065 L 285.885 9.585 L 291.78 9.585 L 291.78 34.065 Z M 105.885 6.84 L 99.99 6.84 L 99.99 0.54 L 105.885 0.54 L 105.885 6.84 Z M 291.78 6.84 L 285.885 6.84 L 285.885 0.54 L 291.78 0.54 L 291.78 6.84 Z"/></g></svg>